<svg width="20" height="21" viewBox="0 0 20 21" fill="none" xmlns="http://www.w3.org/2000/svg">
<path d="M5.92 5.61872C5.97124 5.73894 5.99842 5.86804 6 5.99872C5.99632 6.26349 5.89273 6.51708 5.71 6.70872C5.6128 6.79705 5.50118 6.86808 5.38 6.91872C5.26132 6.9747 5.13118 7.0021 5 6.99872C4.73523 6.99503 4.48163 6.89145 4.29 6.70872C4.19732 6.61528 4.12399 6.50446 4.07423 6.38262C4.02446 6.26079 3.99924 6.13032 4 5.99872C4.00158 5.86804 4.02876 5.73894 4.08 5.61872C4.13064 5.49753 4.20167 5.38592 4.29 5.28872C4.43062 5.14996 4.6092 5.05596 4.80319 5.01859C4.99718 4.98122 5.19789 5.00214 5.38 5.07872C5.50118 5.12936 5.6128 5.20039 5.71 5.28872C5.79833 5.38592 5.86936 5.49753 5.92 5.61872ZM15 4.99872H9C8.73478 4.99872 8.48043 5.10408 8.29289 5.29161C8.10536 5.47915 8 5.7335 8 5.99872C8 6.26393 8.10536 6.51829 8.29289 6.70582C8.48043 6.89336 8.73478 6.99872 9 6.99872H15C15.2652 6.99872 15.5196 6.89336 15.7071 6.70582C15.8946 6.51829 16 6.26393 16 5.99872C16 5.7335 15.8946 5.47915 15.7071 5.29161C15.5196 5.10408 15.2652 4.99872 15 4.99872ZM5.38 10.0787C5.19789 10.0021 4.99718 9.98122 4.80319 10.0186C4.6092 10.056 4.43062 10.15 4.29 10.2887C4.1974 10.3826 4.12581 10.4951 4.08 10.6187C4.02876 10.7389 4.00158 10.868 4 10.9987C3.99924 11.1303 4.02446 11.2608 4.07423 11.3826C4.12399 11.5045 4.19732 11.6153 4.29 11.7087C4.48163 11.8915 4.73523 11.995 5 11.9987C5.13068 11.9971 5.25978 11.97 5.38 11.9187C5.50118 11.8681 5.6128 11.797 5.71 11.7087L5.83 11.5587C5.86785 11.503 5.89811 11.4424 5.92 11.3787C5.9558 11.3232 5.98278 11.2625 6 11.1987C6.00491 11.1321 6.00491 11.0653 6 10.9987C5.99632 10.734 5.89273 10.4804 5.71 10.2887C5.6128 10.2004 5.50118 10.1294 5.38 10.0787ZM15 9.99872H9C8.73478 9.99872 8.48043 10.1041 8.29289 10.2916C8.10536 10.4791 8 10.7335 8 10.9987C8 11.2639 8.10536 11.5183 8.29289 11.7058C8.48043 11.8934 8.73478 11.9987 9 11.9987H15C15.2652 11.9987 15.5196 11.8934 15.7071 11.7058C15.8946 11.5183 16 11.2639 16 10.9987C16 10.7335 15.8946 10.4791 15.7071 10.2916C15.5196 10.1041 15.2652 9.99872 15 9.99872ZM5.71 15.2887C5.6128 15.2004 5.50118 15.1294 5.38 15.0787C5.19789 15.0021 4.99718 14.9812 4.80319 15.0186C4.6092 15.056 4.43062 15.15 4.29 15.2887C4.19896 15.3838 4.12759 15.496 4.08 15.6187C4.02709 15.7384 3.99977 15.8678 3.99977 15.9987C3.99977 16.1296 4.02709 16.259 4.08 16.3787C4.12759 16.5015 4.19896 16.6136 4.29 16.7087C4.48163 16.8915 4.73523 16.995 5 16.9987C5.13068 16.9971 5.25978 16.97 5.38 16.9187C5.50118 16.8681 5.6128 16.797 5.71 16.7087C5.80104 16.6136 5.87241 16.5015 5.92 16.3787C5.97291 16.259 6.00023 16.1296 6.00023 15.9987C6.00023 15.8678 5.97291 15.7384 5.92 15.6187C5.87241 15.496 5.80104 15.3838 5.71 15.2887ZM15 14.9987H9C8.73478 14.9987 8.48043 15.1041 8.29289 15.2916C8.10536 15.4791 8 15.7335 8 15.9987C8 16.2639 8.10536 16.5183 8.29289 16.7058C8.48043 16.8934 8.73478 16.9987 9 16.9987H15C15.2652 16.9987 15.5196 16.8934 15.7071 16.7058C15.8946 16.5183 16 16.2639 16 15.9987C16 15.7335 15.8946 15.4791 15.7071 15.2916C15.5196 15.1041 15.2652 14.9987 15 14.9987ZM20 3.99872V17.9987C20 18.7944 19.6839 19.5574 19.1213 20.12C18.5587 20.6826 17.7956 20.9987 17 20.9987H3C2.20435 20.9987 1.44129 20.6826 0.87868 20.12C0.316071 19.5574 0 18.7944 0 17.9987V3.99872C0 3.20307 0.316071 2.44001 0.87868 1.8774C1.44129 1.31479 2.20435 0.998718 3 0.998718H17C17.7956 0.998718 18.5587 1.31479 19.1213 1.8774C19.6839 2.44001 20 3.20307 20 3.99872ZM18 3.99872C18 3.7335 17.8946 3.47915 17.7071 3.29161C17.5196 3.10408 17.2652 2.99872 17 2.99872H3C2.73478 2.99872 2.48043 3.10408 2.29289 3.29161C2.10536 3.47915 2 3.7335 2 3.99872V17.9987C2 18.2639 2.10536 18.5183 2.29289 18.7058C2.48043 18.8934 2.73478 18.9987 3 18.9987H17C17.2652 18.9987 17.5196 18.8934 17.7071 18.7058C17.8946 18.5183 18 18.2639 18 17.9987V3.99872Z" fill="#231F20"/>
</svg>
